RBDS016runT45_grf
version=1
nRows=27
nColumns=19
inDegrees=no
endheader
time	ground_force_r_vx	ground_force_r_vy	ground_force_r_vz	ground_force_r_px	ground_force_r_py	ground_force_r_pz	ground_force_r_mx	ground_force_r_my	ground_force_r_mz	ground_force_l_vx	ground_force_l_vy	ground_force_l_vz	ground_force_l_px	ground_force_l_py	ground_force_l_pz	ground_force_l_mx	ground_force_l_my	ground_force_l_mz
     14.99900000	   -114.41541772	    734.43561041	     20.57923708	      2.48205625	      0.00000000	      0.98598463	     -0.00000000	      9.31239645	      0.00000000	      0.00000000	      0.00000000	      0.00000000	      0.00000000	      0.00000000	      0.00000000	      0.00000000	      0.00000000	      0.00000000
     15.00000000	   -117.89512618	    773.82247572	     21.26549215	      2.48095938	      0.00000000	      0.98620833	     -0.00000000	      9.47887309	      0.00000000	      0.00000000	      0.00000000	      0.00000000	      0.00000000	      0.00000000	      0.00000000	      0.00000000	      0.00000000	      0.00000000
     15.00100000	   -121.47565585	    811.61576183	     21.86959150	      2.47979122	      0.00000000	      0.98642264	     -0.00000000	      9.65025156	      0.00000000	      0.00000000	      0.00000000	      0.00000000	      0.00000000	      0.00000000	      0.00000000	      0.00000000	      0.00000000	      0.00000000
     15.00200000	   -125.05618552	    849.40904794	     22.47369085	      2.47862306	      0.00000000	      0.98663695	     -0.00000000	      9.82163002	      0.00000000	      0.00000000	      0.00000000	      0.00000000	      0.00000000	      0.00000000	      0.00000000	      0.00000000	      0.00000000	      0.00000000
     15.00300000	   -128.63671518	    887.20233405	     23.07779019	      2.47745490	      0.00000000	      0.98685127	     -0.00000000	      9.99300848	      0.00000000	      0.00000000	      0.00000000	      0.00000000	      0.00000000	      0.00000000	      0.00000000	      0.00000000	      0.00000000	      0.00000000
     15.00400000	   -132.26021821	    923.76161848	     23.61759583	      2.47622933	      0.00000000	      0.98705983	     -0.00000000	     10.17088384	      0.00000000	      0.00000000	      0.00000000	      0.00000000	      0.00000000	      0.00000000	      0.00000000	      0.00000000	      0.00000000	      0.00000000
     15.00500000	   -135.90520791	    959.70390207	     24.12525460	      2.47497506	      0.00000000	      0.98726553	     -0.00000000	     10.35200765	      0.00000000	      0.00000000	      0.00000000	      0.00000000	      0.00000000	      0.00000000	      0.00000000	      0.00000000	      0.00000000	      0.00000000
     15.00600000	   -139.55019761	    995.64618566	     24.63291337	      2.47372079	      0.00000000	      0.98747123	     -0.00000000	     10.53313146	      0.00000000	      0.00000000	      0.00000000	      0.00000000	      0.00000000	      0.00000000	      0.00000000	      0.00000000	      0.00000000	      0.00000000
     15.00700000	   -143.19939904	   1030.90163011	     25.10295845	      2.47243329	      0.00000000	      0.98767463	     -0.00000000	     10.71861368	      0.00000000	      0.00000000	      0.00000000	      0.00000000	      0.00000000	      0.00000000	      0.00000000	      0.00000000	      0.00000000	      0.00000000
     15.00800000	   -146.85702394	   1064.78339631	     25.49777613	      2.47107934	      0.00000000	      0.98787344	     -0.00000000	     10.91281276	      0.00000000	      0.00000000	      0.00000000	      0.00000000	      0.00000000	      0.00000000	      0.00000000	      0.00000000	      0.00000000	      0.00000000
     15.00900000	   -150.51464884	   1098.66516250	     25.89259380	      2.46972538	      0.00000000	      0.98807225	     -0.00000000	     11.10701183	      0.00000000	      0.00000000	      0.00000000	      0.00000000	      0.00000000	      0.00000000	      0.00000000	      0.00000000	      0.00000000	      0.00000000
     15.01000000	   -154.17227374	   1132.54692869	     26.28741148	      2.46837143	      0.00000000	      0.98827107	     -0.00000000	     11.30121091	      0.00000000	      0.00000000	      0.00000000	      0.00000000	      0.00000000	      0.00000000	      0.00000000	      0.00000000	      0.00000000	      0.00000000
     15.01100000	   -157.77666784	   1164.20893289	     26.55172962	      2.46690578	      0.00000000	      0.98846553	     -0.00000000	     11.51027176	      0.00000000	      0.00000000	      0.00000000	      0.00000000	      0.00000000	      0.00000000	      0.00000000	      0.00000000	      0.00000000	      0.00000000
     15.01200000	   -161.38106194	   1195.87093709	     26.81604776	      2.46544012	      0.00000000	      0.98866000	     -0.00000000	     11.71933261	      0.00000000	      0.00000000	      0.00000000	      0.00000000	      0.00000000	      0.00000000	      0.00000000	      0.00000000	      0.00000000	      0.00000000
     15.01300000	   -164.98545604	   1227.53294129	     27.08036591	      2.46397447	      0.00000000	      0.98885447	     -0.00000000	     11.92839346	      0.00000000	      0.00000000	      0.00000000	      0.00000000	      0.00000000	      0.00000000	      0.00000000	      0.00000000	      0.00000000	      0.00000000
     15.01400000	   -168.50257127	   1257.64254615	     27.24582183	      2.46242754	      0.00000000	      0.98904814	     -0.00000000	     12.14754294	      0.00000000	      0.00000000	      0.00000000	      0.00000000	      0.00000000	      0.00000000	      0.00000000	      0.00000000	      0.00000000	      0.00000000
     15.01500000	   -171.97604706	   1286.97595134	     27.36184665	      2.46083996	      0.00000000	      0.98924140	     -0.00000000	     12.37173673	      0.00000000	      0.00000000	      0.00000000	      0.00000000	      0.00000000	      0.00000000	      0.00000000	      0.00000000	      0.00000000	      0.00000000
     15.01600000	   -175.44952285	   1316.30935653	     27.47787148	      2.45925239	      0.00000000	      0.98943467	     -0.00000000	     12.59593052	      0.00000000	      0.00000000	      0.00000000	      0.00000000	      0.00000000	      0.00000000	      0.00000000	      0.00000000	      0.00000000	      0.00000000
     15.01700000	   -178.85047204	   1344.84633223	     27.53893205	      2.45762141	      0.00000000	      0.98962870	     -0.00000000	     12.82478089	      0.00000000	      0.00000000	      0.00000000	      0.00000000	      0.00000000	      0.00000000	      0.00000000	      0.00000000	      0.00000000	      0.00000000
     15.01800000	   -182.10636800	   1371.79044898	     27.49006414	      2.45590362	      0.00000000	      0.98982425	     -0.00000000	     13.06294440	      0.00000000	      0.00000000	      0.00000000	      0.00000000	      0.00000000	      0.00000000	      0.00000000	      0.00000000	      0.00000000	      0.00000000
     15.01900000	   -185.36226396	   1398.73456573	     27.44119623	      2.45418584	      0.00000000	      0.99001981	     -0.00000000	     13.30110791	      0.00000000	      0.00000000	      0.00000000	      0.00000000	      0.00000000	      0.00000000	      0.00000000	      0.00000000	      0.00000000	      0.00000000
     15.02000000	   -188.61815993	   1425.67868247	     27.39232831	      2.45246805	      0.00000000	      0.99021536	     -0.00000000	     13.53927143	      0.00000000	      0.00000000	      0.00000000	      0.00000000	      0.00000000	      0.00000000	      0.00000000	      0.00000000	      0.00000000	      0.00000000
     15.02100000	   -191.56415794	   1450.21642091	     27.16459951	      2.45061377	      0.00000000	      0.99041678	     -0.00000000	     13.78893928	      0.00000000	      0.00000000	      0.00000000	      0.00000000	      0.00000000	      0.00000000	      0.00000000	      0.00000000	      0.00000000	      0.00000000
     15.02200000	   -194.51015595	   1474.75415935	     26.93687071	      2.44875948	      0.00000000	      0.99061819	     -0.00000000	     14.03860713	      0.00000000	      0.00000000	      0.00000000	      0.00000000	      0.00000000	      0.00000000	      0.00000000	      0.00000000	      0.00000000	      0.00000000
     15.02300000	   -197.45615396	   1499.29189779	     26.70914190	      2.44690520	      0.00000000	      0.99081961	     -0.00000000	     14.28827498	      0.00000000	      0.00000000	      0.00000000	      0.00000000	      0.00000000	      0.00000000	      0.00000000	      0.00000000	      0.00000000	      0.00000000
     15.02400000	   -200.13266211	   1522.23874785	     26.35555414	      2.44495705	      0.00000000	      0.99102718	     -0.00000000	     14.54321962	      0.00000000	      0.00000000	      0.00000000	      0.00000000	      0.00000000	      0.00000000	      0.00000000	      0.00000000	      0.00000000	      0.00000000
     15.02500000	   -202.67442533	   1544.39015372	     25.93903691	      2.44296197	      0.00000000	      0.99123782	     -0.00000000	     14.80080264	      0.00000000	      0.00000000	      0.00000000	      0.00000000	      0.00000000	      0.00000000	      0.00000000	      0.00000000	      0.00000000	      0.00000000
